<?xml version="1.0" encoding="UTF-8"?>
<svg version="1.1" viewBox="0 0 2048 648" width="843" height="267" xmlns="http://www.w3.org/2000/svg">
<path transform="translate(195,92)" d="m0 0h216l1 189 16 24 9 17 8 21 5 18 3 17 1 10v34l-3 22-6 22-6 16-9 19-12 19-14 17-16 16-17 13-14 9-16 8-11 5-18 6-24 5-20 2h-204l-1-191-12-17-9-16-8-17-7-22-4-18-2-16v-33l3-21 6-24 8-20 11-21 11-16 9-11 12-13 10-9 19-14 16-9 19-9 18-6 23-5z" fill="#6F6F66"/>
<path transform="translate(1354,194)" d="m0 0h95l8 11 10 16 10 15 42 64 38 58 18 27 1-191h95v342h-95l-10-14-18-27-25-38-42-63-19-29-12-18-1 189h-95z" fill="#343434"/>
<path transform="translate(1069,189)" d="m0 0h35l22 3 22 6 19 8 18 10 15 11 10 9 12 12 12 16 9 16 6 12 6 16 5 21 2 15 1 24-2 24-4 21-7 21-8 16-6 11-10 14-10 11-5 6-8 7-13 10-15 9-16 8-24 8-20 4-20 2h-17l-20-2-23-5-17-6-23-11-16-11-13-11-14-14-10-13-10-16-9-19-6-18-4-20-2-18v-24l3-24 5-20 7-19 10-19 13-18 12-13 8-8 17-13 21-12 17-7 20-6 16-3zm8 87-16 3-12 5-11 7-8 7-10 14-6 13-4 15-2 18v13l3 22 5 15 8 14 9 10 8 7 16 8 17 4h25l15-3 17-8 11-9 9-11 8-15 5-17 2-16v-18l-3-19-5-15-8-14-9-10-9-8-16-8-18-4z" fill="#343434"/>
<path transform="translate(1774,194)" d="m0 0h218l1 1v75l-123 1-1 55h108l2 1v71l-110 1v61h123l1 1v75h-219z" fill="#343434"/>
<path transform="translate(412,284)" d="m0 0h2l14 21 9 17 8 21 5 18 3 17 1 10v34l-3 22-6 22-6 16-9 19-12 19-14 17-16 16-17 13-14 9-16 8-11 5-18 6-24 5-20 2h-204v-189l7 6 11 12 8 7 17 13 19 11 17 8 21 7 18 4 23 3h22l24-3 21-5 20-7 20-10 16-10 14-11 12-11 8-8 11-14 10-15 11-21 9-25 5-21z" fill="#343434"/>
<path transform="translate(195,92)" d="m0 0h216v187l-7-6-11-11-11-9-15-11-15-9-23-11-18-6-25-5-9-1h-34l-26 4-23 6-19 8-19 10-14 10-6 5h-2v2l-11 9-7 7-9 11-12 17-8 14-9 19-7 21-3 12-4 29-1 14-5-5-10-15-11-21-7-19-5-18-3-18-1-8v-33l3-21 6-24 8-20 11-21 11-16 9-11 12-13 10-9 19-14 16-9 19-9 18-6 23-5z" fill="#85847A"/>
<path transform="translate(562,194)" d="m0 0h276l1 1v74l-1 1h-90v265l-1 1h-95v-266h-90z" fill="#353535"/>
</svg>
