<?xml version="1.0" encoding="UTF-8"?>
<svg version="1.1" viewBox="0 0 1753 2048" width="512" height="598" xmlns="http://www.w3.org/2000/svg">
<path transform="translate(730)" d="m0 0h831l1 750 8 10 11 13 10 13 12 16 14 20 12 18 15 24 13 23 10 18 11 23 14 31 13 33 10 28 10 34 9 36 7 35 6 40 4 39 2 22v74l-5 53-7 49-9 44-11 41-9 28-10 28-15 36-16 34-15 29-14 24-12 19-16 24-10 14-8 11-10 13-13 16-13 15-9 10-7 8-43 43-8 7-11 10-11 9-12 10-26 20-19 13-21 14-21 13-21 12-24 13-31 15-30 13-40 15-31 10-42 11-38 8-38 6-37 4-31 2-31 1h-787l-1-1-1-753-8-10-11-13-13-17-10-13-24-36-11-17-15-26-15-29-8-16-14-31-13-33-14-41-12-45-8-37-7-44-4-34-2-18v-102l8-64 6-36 8-36 8-31 11-35 10-27 12-29 15-33 11-22 13-23 9-16 13-20 14-21 14-20 14-18 9-11 11-13 9-11 16-17 12-13 19-19 8-7 13-12 10-9 10-8 12-10 13-10 19-14 36-24 16-10 22-13 14-7 19-10 23-11 25-11 36-14 27-9 39-11 30-7 31-6 41-6z" fill="#E8E7E6"/>
<path transform="translate(1563,753)" d="m0 0 5 5 9 10 26 34 14 20 12 18 15 24 13 23 10 18 11 23 14 31 13 33 10 28 10 34 9 36 7 35 6 40 4 39 2 22v74l-5 53-7 49-9 44-11 41-9 28-10 28-15 36-16 34-15 29-14 24-12 19-16 24-10 14-8 11-10 13-13 16-13 15-9 10-7 8-43 43-8 7-11 10-11 9-12 10-26 20-19 13-21 14-21 13-21 12-24 13-31 15-30 13-40 15-31 10-42 11-38 8-38 6-37 4-31 2-31 1h-787l-1-1v-750l4 2 12 12 7 8 41 41 8 7 14 12 13 11 14 11 13 10 18 13 27 18 21 13 21 12 26 14 27 13 37 16 35 13 28 9 37 10 42 9 35 6 43 5 28 2h78l30-2 37-4 38-6 34-7 32-8 40-12 30-11 22-9 25-11 33-16 30-16 18-11 19-12 22-15 18-13 17-13 17-14 14-12 12-11 8-7 13-12 16-16 7-8 14-15 9-11 9-10 11-14 14-18 14-20 18-27 12-19 12-21 12-23 8-16 16-35 11-27 10-28 9-28 9-35 9-43 6-38 4-33 2-25 2-75z" fill="#9B9B9B"/>
<path transform="translate(730)" d="m0 0h831v748l-4-2-7-8-11-12-34-34-8-7-12-11-11-9-13-11-17-13-18-13-24-16-20-13-22-13-27-15-26-13-33-15-27-11-24-9-32-10-30-8-32-7-41-7-45-5-33-2h-60l-43 2-30 3-31 4-43 8-37 9-27 8-36 12-26 10-26 11-34 16-25 13-27 16-22 14-22 15-18 13-18 14-16 13-10 9-11 9-8 8-8 7-30 30-7 8-13 14-9 11-11 13-7 9-12 16-13 18-12 18-12 19-12 20-13 24-12 23-16 35-11 27-7 19-12 37-11 40-10 48-4 27-4 38-3 49v11l-1 26v13l-5-5-9-11-14-17-12-16-11-16-16-24-11-17-15-26-15-29-8-16-14-31-13-33-14-41-12-45-8-37-7-44-4-34-2-18v-102l8-64 6-36 8-36 8-31 11-35 10-27 12-29 15-33 11-22 13-23 9-16 13-20 14-21 14-20 14-18 9-11 11-13 9-11 16-17 12-13 19-19 8-7 13-12 10-9 10-8 12-10 13-10 19-14 36-24 16-10 22-13 14-7 19-10 23-11 25-11 36-14 27-9 39-11 30-7 31-6 41-6z" fill="#FCFCFC"/>
</svg>
